<svg xmlns="http://www.w3.org/2000/svg" viewBox="0 0 446.73 436.53">
  <title>krowdspace</title>
  <path d="M220.35,44.81H25.15a19.64,19.64,0,0,1,0-39.28H220.35a19.64,19.64,0,1,1,0,39.28Z" transform="translate(0 0)"/>
  <path d="M220.35,50.28H25.15A25.14,25.14,0,0,1,25.15,0h195.2a25.14,25.14,0,1,1,0,50.28ZM25.15,11a14.14,14.14,0,1,0-1.38,28.25H220.35a14.14,14.14,0,1,0,0-28.28h0Zm195.2,226.34H25.15a19.64,19.64,0,0,1,0-39.28H220.35c49.38,0,96.15-21.18,131.68-59.64,30.78-33.31,49.91-76.72,49.91-113.28a19.64,19.64,0,0,1,39.28,0c0,46.74-22.56,99.05-60.34,139.94C337.79,211.71,280.78,237.37,220.35,237.37Z" transform="translate(0 0)"/>
  <path d="M220.35,242.87H25.15a25.14,25.14,0,0,1,0-50.28h195.2c47.83,0,93.16-20.55,127.65-57.88,29.88-32.34,48.45-74.32,48.45-109.55a25.14,25.14,0,0,1,50.28,0h0c0,48.09-23.1,101.8-61.8,143.67C340.78,216.58,282.35,242.87,220.35,242.87ZM25.15,203.6a14.14,14.14,0,0,0,0,28.28h195.2c58.91,0,114.49-25,156.49-70.5,36.87-39.9,58.88-90.81,58.88-136.21a14.14,14.14,0,1,0-28.28,0h0c0,37.89-19.68,82.73-51.37,117-36.62,39.62-84.82,61.43-135.72,61.43Z" transform="translate(0 0)"/>
  <path d="M163.63,141.11H25.14a19.64,19.64,0,0,1,0-39.28H220c40.45-1,83.71-32,83.71-76.65a19.64,19.64,0,0,1,39.28,0c0,28.72-12.6,57.66-34.58,79.39-23.06,22.8-54.18,35.78-87.64,36.53H163.63Z" transform="translate(0 0)"/>
  <path d="M163.63,146.61H25.14a25.14,25.14,0,0,1,0-50.28H220c37.74-.9,78.24-29.7,78.24-71.15a25.14,25.14,0,0,1,50.28,0h0c0,30.18-13.2,60.54-36.21,83.3-24.06,23.8-56.51,37.33-91.38,38.12C220.57,146.59,219.74,146.61,163.63,146.61ZM25.15,107.28a14.14,14.14,0,0,0,0,28.28H220.64c32-.72,61.82-13.13,83.88-34.94,20.94-20.71,32.94-48.22,32.94-75.48a14.14,14.14,0,1,0-28.28,0h0c0,47.87-46.06,81.12-89.08,82.14-5.2.07-129.53,0-194.95,0ZM220.35,431H25.15a19.64,19.64,0,0,1,0-39.28h195.2a19.64,19.64,0,1,1,0,39.28Z" transform="translate(0 0)"/>
  <path d="M220.35,436.53H25.15a25.14,25.14,0,0,1,0-50.28h195.2a25.14,25.14,0,1,1,0,50.28ZM25.15,397.28a14.14,14.14,0,0,0,0,28.28h195.2a14.14,14.14,0,1,0,0-28.28H25.15ZM421.55,431a19.64,19.64,0,0,1-19.64-19.64c0-36.56-19.12-80-49.91-113.28-35.54-38.46-82.31-59.64-131.68-59.64H25.15a19.64,19.64,0,0,1,0-39.28H220.35c60.46,0,117.47,25.66,160.53,72.26,37.78,40.89,60.34,93.2,60.34,139.94A19.64,19.64,0,0,1,421.58,431Z" transform="translate(0 0)"/>
  <path d="M421.55,436.53a25.17,25.17,0,0,1-25.14-25.14c0-35.24-18.56-77.21-48.45-109.55C313.48,264.52,268.15,244,220.35,244H25.15a25.14,25.14,0,0,1,0-50.28h195.2c62,0,120.46,26.29,164.57,74,38.69,41.88,61.8,95.58,61.8,143.67a25.17,25.17,0,0,1-25.16,25.18h0ZM25.15,204.69a14.14,14.14,0,0,0,0,28.28h195.2c50.93,0,99.13,21.81,135.72,61.41,31.68,34.29,51.37,79.13,51.37,117a14.14,14.14,0,1,0,28.28,0h0c0-45.39-22-96.31-58.87-136.21-42-45.46-97.58-70.5-156.49-70.5Z" transform="translate(0 0)"/>
  <path d="M323.35,431a19.64,19.64,0,0,1-19.64-19.64h0c0-36.25-34.24-76.64-83.38-76.64H25.15a19.64,19.64,0,0,1,0-39.28h195.2a124.31,124.31,0,0,1,86.83,35.26C330,352.73,343,382.16,343,411.4A19.64,19.64,0,0,1,323.36,431Z" transform="translate(0 0)"/>
  <path d="M323.35,436.53a25.17,25.17,0,0,1-25.14-25.14c0-33.65-32-71.14-77.88-71.14H25.15a25.14,25.14,0,0,1,0-50.28h195.2A129.78,129.78,0,0,1,311,326.77c23.83,23.06,37.5,53.91,37.5,84.62A25.17,25.17,0,0,1,323.35,436.53ZM25.15,301a14.14,14.14,0,1,0,0,28.28H220.35a90.12,90.12,0,0,1,64,26.33c15.81,15.74,24.88,36.08,24.88,55.81a14.14,14.14,0,1,0,28.28,0h0c0-27.75-12.45-55.71-34.15-76.71a118.84,118.84,0,0,0-83-33.71Z" transform="translate(0 0)"/>
</svg>
